#!OML:ASF F:\VICON\USERDATA\INSTALL\rory3\rory3.ASF
:FULLY-SPECIFIED
:DEGREES
2177
root -1.01865 18.5592 1.7753 -363.612 130.228 -8.27278
lowerback 10.035 3.58951 2.15424
upperback 3.26631 5.20816 1.9225
thorax -2.20197 2.66547 0.170682
lowerneck -5.02157 -10.4467 -13.4538
upperneck 18.5503 -12.5573 2.8205
head 7.62462 -6.49135 1.98429
rclavicle -3.73715e-014 1.74931e-014
rhumerus 331.447 26.3903 -436.875
rradius 68.2178
rwrist 12.2871
rhand -32.1025 0.0674597
rfingers 7.12502
rthumb -5.34772 -29.8451
lclavicle -3.73715e-014 1.74931e-014
lhumerus -30.2059 23.028 6.67793
lradius 78.5392
lwrist -29.7493
lhand -50.1144 55.5731
lfingers 7.12502
lthumb -22.6989 84.2581
rfemur -7.11373 11.6564 10.909
rtibia 28.8733
rfoot -24.9692 -29.5586
rtoes -5.33695
lfemur -15.1098 -14.2786 -9.92973
ltibia 10.8969
lfoot -9.51274 9.27225
ltoes -11.9099
2178
root -1.03338 18.5623 1.7967 -364.173 130.454 -8.8036
lowerback 10.091 3.57334 1.92881
upperback 3.32489 5.15644 1.69611
thorax -2.17105 2.64006 0.0672051
lowerneck -5.07962 -10.5105 -13.2194
upperneck 18.562 -12.6862 2.88724
head 7.63517 -6.53402 1.95416
rclavicle 1.68967e-013 -1.27222e-014
rhumerus 331.202 27.307 -437.66
rradius 69.3811
rwrist 12.5539
rhand -32.4327 -0.642819
rfingers 7.12502
rthumb -5.6665 -30.5471
lclavicle 1.68967e-013 -1.27222e-014
lhumerus -29.816 23.5263 6.83108
lradius 77.5285
lwrist -30.5954
lhand -50.6935 57.5362
lfingers 7.12502
lthumb -23.2545 86.152
rfemur -6.95501 11.5679 10.5574
rtibia 28.8594
rfoot -25.0597 -29.5532
rtoes -5.18615
lfemur -15.1085 -14.1025 -10.5212
ltibia 12.0743
lfoot -10.0814 10.3199
ltoes -10.5163
2179
root -1.04341 18.5686 1.81376 -364.921 130.786 -9.68538
lowerback 9.98574 3.5776 1.36735
upperback 3.36131 5.09385 1.50237
thorax -2.1068 2.60763 0.194623
lowerneck -5.17978 -10.48 -13.0581
upperneck 18.6571 -12.6477 2.86899
head 7.66733 -6.50549 1.92291
rclavicle -8.5875e-014 1.43125e-014
rhumerus 330.896 28.2522 -438.325
rradius 70.495
rwrist 12.7461
rhand -32.558 -0.28312
rfingers 7.12502
rthumb -5.78751 -30.1841
lclavicle -8.5875e-014 1.43125e-014
lhumerus -29.2433 23.9685 7.08705
lradius 75.8704
lwrist -31.1074
lhand -50.8293 58.6288
lfingers 7.12502
lthumb -23.3848 87.2281
rfemur -6.84541 11.402 9.91055
rtibia 28.8659
rfoot -25.2127 -29.5173
rtoes -4.908
lfemur -15.1727 -14.0291 -11.3768
ltibia 13.2649
lfoot -10.6212 11.2682
ltoes -9.24831
2180
root -1.05698 18.569 1.83949 -364.486 131.006 -9.25528
lowerback 9.778 3.5799 1.6334
upperback 3.33271 5.11736 1.54074
thorax -2.00294 2.61994 0.0981114
lowerneck -5.37789 -10.3357 -12.9817
upperneck 18.7772 -12.4647 3.01871
head 7.72954 -6.40007 1.96934
rclavicle 3.29983e-014 -1.59028e-015
rhumerus 330.672 29.1014 -438.964
rradius 71.5779
rwrist 13.0043
rhand -32.9359 -0.0797451
rfingers 7.12502
rthumb -6.15238 -29.9704
lclavicle 3.29983e-014 -1.59028e-015
lhumerus -28.366 24.3894 7.39373
lradius 73.6364
lwrist -31.252
lhand -50.7344 58.6733
lfingers 7.12502
lthumb -23.2938 87.2842
rfemur -7.03543 11.3337 10.2284
rtibia 28.9298
rfoot -25.3437 -29.6586
rtoes -4.56854
lfemur -15.4672 -13.8101 -11.1675
ltibia 14.3534
lfoot -10.8011 11.9581
ltoes -7.89764
2181
root -1.07088 18.5632 1.86516 -363.867 131.218 -8.46236
lowerback 9.62938 3.55091 2.15047
upperback 3.33726 5.12973 1.65379
thorax -1.88203 2.62994 -0.0616079
lowerneck -5.80466 -10.0383 -12.8552
upperneck 19.0863 -12.0381 3.1258
head 7.86815 -6.1754 2.00942
rclavicle 1.98785e-014 6.20208e-014
rhumerus 330.553 29.9852 -439.578
rradius 72.688
rwrist 13.4282
rhand -33.712 -0.0910874
rfingers 7.12502
rthumb -6.90152 -29.9586
lclavicle 1.98785e-014 6.20208e-014
lhumerus -27.2729 24.7323 7.62658
lradius 70.8928
lwrist -31.4402
lhand -50.3421 58.1657
lfingers 7.12502
lthumb -22.9174 86.8238
rfemur -7.15698 11.3186 10.8435
rtibia 29.0454
rfoot -25.4208 -29.8814
rtoes -4.15914
lfemur -15.717 -13.3602 -10.7385
ltibia 15.5514
lfoot -10.7995 12.3203
ltoes -7.61266
2182
root -1.08378 18.5583 1.88451 -363.862 131.497 -8.23002
lowerback 9.56932 3.52436 2.30754
upperback 3.39495 5.11223 1.70853
thorax -1.78096 2.62534 -0.0833276
lowerneck -6.26179 -9.54682 -12.5662
upperneck 19.4737 -11.3353 3.11863
head 7.9979 -5.81484 2.02071
rclavicle -3.69739e-014 -4.13472e-014
rhumerus 330.475 30.9295 -440.121
rradius 73.6844
rwrist 14.1066
rhand -33.4652 0.192232
rfingers 7.12502
rthumb -6.66328 -29.6829
lclavicle -3.69739e-014 -4.13472e-014
lhumerus -25.9822 24.9958 7.7989
lradius 67.6954
lwrist -31.5231
lhand -49.5094 55.9025
lfingers 7.12502
lthumb -22.1181 84.6574
rfemur -7.06043 11.186 11.0446
rtibia 29.1908
rfoot -25.3199 -29.9571
rtoes -4.33471
lfemur -15.7614 -12.7578 -10.8361
ltibia 16.8986
lfoot -10.8503 12.4572
ltoes -8.24678
2183
root -1.09661 18.5518 1.90359 -363.715 131.729 -7.84249
lowerback 9.49388 3.52231 2.494
upperback 3.43462 5.13256 1.85013
thorax -1.69503 2.63955 -0.0358937
lowerneck -6.77265 -8.87119 -12.2338
upperneck 19.8569 -10.3746 3.08688
head 8.11307 -5.32985 2.04705
rclavicle 2.14687e-014 -1.11319e-014
rhumerus 330.457 31.965 -440.583
rradius 74.6574
rwrist 14.8923
rhand -32.6995 0.366524
rfingers 7.12502
rthumb -5.92413 -29.5307
lclavicle 2.14687e-014 -1.11319e-014
lhumerus -24.6277 25.1977 7.95824
lradius 64.2105
lwrist -31.2731
lhand -48.132 52.2525
lfingers 7.12502
lthumb -20.7952 81.1581
rfemur -7.05594 11.0642 11.3552
rtibia 29.4174
rfoot -25.4339 -29.9573
rtoes -4.32904
lfemur -15.7832 -12.2201 -10.7692
ltibia 18.1636
lfoot -10.7397 12.4191
ltoes -8.55287
2184
root -1.109 18.5441 1.91802 -363.763 131.966 -7.70661
lowerback 9.4007 3.53964 2.42488
upperback 3.49272 5.15456 2.00769
thorax -1.60416 2.65378 0.17069
lowerneck -7.39749 -8.09624 -11.9888
upperneck 20.2781 -9.26941 3.13543
head 8.26271 -4.77594 2.12716
rclavicle 5.28767e-014 -2.38542e-014
rhumerus 330.559 33.0951 -440.941
rradius 75.7522
rwrist 15.2625
rhand -32.1388 0.232718
rfingers 7.12502
rthumb -5.38271 -29.6789
lclavicle 5.28767e-014 -2.38542e-014
lhumerus -23.0454 25.4944 8.20191
lradius 60.1715
lwrist -30.8334
lhand -46.641 49.7481
lfingers 7.12502
lthumb -19.3621 78.8041
rfemur -7.06895 10.8787 11.4679
rtibia 29.7421
rfoot -25.7639 -29.8982
rtoes -3.9362
lfemur -15.7602 -11.8351 -10.8581
ltibia 19.331
lfoot -10.5105 12.1815
ltoes -8.60509
2185
root -1.12439 18.5346 1.93574 -363.993 132.343 -7.7699
lowerback 9.38186 3.52624 2.26389
upperback 3.54291 5.12675 2.0792
thorax -1.5629 2.6416 0.339082
lowerneck -7.92747 -7.27984 -11.7651
upperneck 20.6119 -8.16594 3.39757
head 8.37726 -4.20778 2.28941
rclavicle 4.13472e-014 -7.95139e-015
rhumerus 330.668 34.2263 -441.339
rradius 76.7753
rwrist 15.5243
rhand -31.9599 0.265808
rfingers 7.12502
rthumb -5.21006 -29.6501
lclavicle 4.13472e-014 -7.95139e-015
lhumerus -21.1554 25.8059 8.47944
lradius 55.6903
lwrist -30.3681
lhand -45.1583 48.016
lfingers 7.12502
lthumb -17.936 77.2089
rfemur -7.01951 10.5237 11.4268
rtibia 30.0784
rfoot -25.954 -29.8406
rtoes -4.00003
lfemur -15.7605 -11.5947 -11.0883
ltibia 20.5331
lfoot -10.3355 11.7639
ltoes -8.82085
2186
root -1.14337 18.5202 1.96088 -364.016 132.812 -7.53829
lowerback 9.45925 3.48646 2.28002
upperback 3.57032 5.08673 2.1822
thorax -1.58543 2.62403 0.435538
lowerneck -8.44665 -6.37885 -11.3458
upperneck 20.9621 -6.9656 3.59325
head 8.47555 -3.58429 2.41307
rclavicle -3.97569e-016 -3.65764e-014
rhumerus 330.778 35.3763 -441.792
rradius 77.5363
rwrist 16.4795
rhand -32.3341 0.448474
rfingers 7.12502
rthumb -5.57134 -29.4583
lclavicle -3.97569e-016 -3.65764e-014
lhumerus -19.3568 25.5879 8.7408
lradius 51.4808
lwrist -29.5919
lhand -43.0359 46.4052
lfingers 7.12502
lthumb -15.8929 75.773
rfemur -6.95453 10.1304 11.6297
rtibia 30.4062
rfoot -26.0406 -29.8865
rtoes -4.24767
lfemur -15.8161 -11.3452 -11.0737
ltibia 21.7379
lfoot -9.89741 11.0577
ltoes -9.15335
